<?xml version="1.0" encoding="utf-8"?>
<!-- Generator: Adobe Illustrator 16.0.0, SVG Export Plug-In . SVG Version: 6.00 Build 0)  -->
<!DOCTYPE svg PUBLIC "-//W3C//DTD SVG 1.1//EN" "http://www.w3.org/Graphics/SVG/1.1/DTD/svg11.dtd">
<svg version="1.1" id="Layer_1" xmlns="http://www.w3.org/2000/svg" xmlns:xlink="http://www.w3.org/1999/xlink" x="0px" y="0px"
	 width="874px" height="133px" viewBox="0 0 874 133" enable-background="new 0 0 874 133" xml:space="preserve">
<path fill="#FFFFFF" d="M58.306,24.085c10.321,0,16.775,3.298,25.029,12.203l18.07-17.294C89.019,6.026,76.376,0.935,58.306,0.935
	c-29.418,0-58.317,17.553-58.317,65.879c0,48.327,28.899,66.125,58.317,66.125c18.07,0,30.713-5.338,43.099-18.312l-18.07-17.041
	c-8.254,8.896-14.708,12.204-25.029,12.204c-10.063,0-18.574-4.059-24.258-11.448c-5.674-7.112-7.74-16.524-7.74-31.529
	c0-15.005,2.066-24.168,7.74-31.281C39.732,28.143,48.243,24.085,58.306,24.085z M190.569,0.935
	c-33.546,0-55.481,24.159-55.481,65.879c0,49.09,26.058,66.125,58.832,66.125c22.968,0,35.611-6.863,49.03-20.09l-16.771-15.521
	c-9.291,9.164-17.036,13.228-31.74,13.228c-21.245,0-33.084-13.105-33.274-34.908h84.884V62.999
	C246.049,26.37,225.665,0.935,190.569,0.935z M161.174,55.154c0.267-7.366,0.824-10.65,3.323-16.323
	c4.137-9.665,13.685-16.271,26.072-16.271c12.386,0,21.672,6.606,25.8,16.271c2.504,5.673,3.299,8.957,3.584,16.323H161.174z
	 M319.498,94.28V2.451h-26.323v93.354c0,19.076,10.834,35.611,35.863,35.611h18.241v-22.127h-13.596
	C323.107,109.289,319.498,104.198,319.498,94.28z M438.803,0.935c-17.803,0-30.445,6.616-38.966,15.263
	c-12.391,12.71-15.48,28.996-15.48,50.616c0,21.874,3.09,38.144,15.48,50.864c8.521,8.656,21.163,15.262,38.966,15.262
	c17.818,0,30.719-6.605,39.239-15.262c12.396-12.72,15.499-28.99,15.499-50.864c0-21.62-3.104-37.906-15.499-50.616
	C469.521,7.551,456.621,0.935,438.803,0.935z M458.163,102.167c-4.894,4.823-11.615,7.624-19.36,7.624
	c-7.74,0-14.193-2.801-19.097-7.624c-7.998-7.887-9.026-21.367-9.026-35.353c0-13.987,1.028-27.466,9.026-35.358
	c4.903-4.837,11.356-7.371,19.097-7.371c7.745,0,14.467,2.534,19.36,7.371c8.007,7.892,9.035,21.371,9.035,35.358
	C467.198,80.8,466.17,94.28,458.163,102.167z M694.784,131.416h26.324V2.451h-26.324V131.416z M835.038,55.619l-20.65-1.774
	c-13.928-1.276-18.06-7.117-18.06-14.755c0-9.666,8.007-16.53,23.734-16.53c12.396,0,24.011,2.543,32.265,9.407l16.509-16.529
	c-12.13-10.43-28.895-14.503-48.507-14.503c-27.353,0-49.287,14.245-49.287,39.431c0,22.633,14.195,33.569,38.71,35.601
	l20.897,1.783c12.643,1.018,17.546,6.605,17.546,15.253c0,12.213-12.644,17.812-28.646,17.812c-12.891,0-27.086-2.807-37.673-13.485
	l-17.289,17.041c15.48,15.014,33.541,18.569,54.962,18.569c31.227,0,54.456-13.985,54.456-40.944
	C874.005,69.104,859.553,57.65,835.038,55.619z M588.783,0.935c-15.489,0-27.361,5.34-37.424,15.263
	c-15.225,15.009-15.738,34.846-15.738,52.14v63.078h25.829V68.338c0-11.448-0.543-26.71,8.482-35.606
	c5.941-5.846,10.587-8.647,18.851-8.647c8.254,0,12.891,2.801,18.832,8.647c9.024,8.896,8.787,24.158,8.787,35.606v63.078h25.523
	V68.338c0-17.294-0.514-37.131-15.736-52.14C616.126,6.275,604.264,0.935,588.783,0.935z"/>
</svg>
