<svg xmlns="http://www.w3.org/2000/svg" xmlns:xlink="http://www.w3.org/1999/xlink" preserveAspectRatio="xMidYMid" width="874" height="133" viewBox="0 0 874 133">
  <defs>
    <style>
      .cls-1 {
        fill: #1ea7d4;
        fill-rule: evenodd;
      }
    </style>
  </defs>
  <path d="M58.306,24.085 C68.627,24.085 75.081,27.383 83.335,36.288 L101.405,18.994 C89.019,6.026 76.376,0.935 58.306,0.935 C28.888,0.935 -0.011,18.488 -0.011,66.814 C-0.011,115.140 28.888,132.940 58.306,132.940 C76.376,132.940 89.019,127.601 101.405,114.628 L83.335,97.587 C75.081,106.483 68.627,109.791 58.306,109.791 C48.243,109.791 39.732,105.732 34.048,98.343 C28.374,91.230 26.308,81.818 26.308,66.814 C26.308,51.809 28.374,42.646 34.048,35.533 C39.732,28.143 48.243,24.085 58.306,24.085 ZM190.569,0.935 C157.023,0.935 135.088,25.094 135.088,66.814 C135.088,115.904 161.146,132.940 193.920,132.940 C216.888,132.940 229.531,126.076 242.950,112.850 L226.179,97.329 C216.888,106.493 209.143,110.556 194.439,110.556 C173.194,110.556 161.355,97.451 161.165,75.648 L246.049,75.648 L246.049,62.999 C246.049,26.370 225.665,0.935 190.569,0.935 ZM161.174,55.154 C161.441,47.788 161.998,44.504 164.497,38.831 C168.634,29.166 178.182,22.560 190.569,22.560 C202.955,22.560 212.241,29.166 216.369,38.831 C218.873,44.504 219.668,47.788 219.953,55.154 L161.174,55.154 ZM319.498,94.280 L319.498,2.451 L293.175,2.451 L293.175,95.804 C293.175,114.881 304.009,131.416 329.038,131.416 L347.279,131.416 L347.279,109.289 L333.684,109.289 C323.107,109.289 319.498,104.198 319.498,94.280 ZM438.803,0.935 C421.000,0.935 408.357,7.551 399.837,16.198 C387.446,28.908 384.356,45.194 384.356,66.814 C384.356,88.687 387.446,104.958 399.837,117.678 C408.357,126.334 421.000,132.940 438.803,132.940 C456.621,132.940 469.521,126.334 478.042,117.678 C490.437,104.958 493.541,88.687 493.541,66.814 C493.541,45.194 490.437,28.908 478.042,16.198 C469.521,7.551 456.621,0.935 438.803,0.935 ZM458.163,102.167 C453.270,106.990 446.548,109.791 438.803,109.791 C431.063,109.791 424.609,106.990 419.706,102.167 C411.708,94.280 410.680,80.800 410.680,66.814 C410.680,52.827 411.708,39.348 419.706,31.456 C424.609,26.619 431.063,24.085 438.803,24.085 C446.548,24.085 453.270,26.619 458.163,31.456 C466.170,39.348 467.198,52.827 467.198,66.814 C467.198,80.800 466.170,94.280 458.163,102.167 ZM694.784,131.416 L721.108,131.416 L721.108,2.451 L694.784,2.451 L694.784,131.416 ZM835.038,55.619 L814.388,53.845 C800.460,52.569 796.328,46.728 796.328,39.090 C796.328,29.424 804.335,22.560 820.063,22.560 C832.458,22.560 844.073,25.103 852.327,31.967 L868.836,15.438 C856.706,5.008 839.941,0.935 820.329,0.935 C792.977,0.935 771.042,15.180 771.042,40.366 C771.042,62.999 785.237,73.936 809.752,75.967 L830.649,77.750 C843.292,78.768 848.195,84.356 848.195,93.003 C848.195,105.216 835.552,110.814 819.549,110.814 C806.658,110.814 792.463,108.008 781.876,97.329 L764.587,114.370 C780.067,129.384 798.128,132.940 819.549,132.940 C850.775,132.940 874.005,118.954 874.005,91.995 C874.005,69.103 859.553,57.650 835.038,55.619 ZM588.783,0.935 C573.294,0.935 561.422,6.275 551.359,16.198 C536.135,31.207 535.621,51.044 535.621,68.338 L535.621,131.416 L561.450,131.416 L561.450,68.338 C561.450,56.890 560.907,41.628 569.933,32.732 C575.874,26.886 580.520,24.085 588.783,24.085 C597.037,24.085 601.674,26.886 607.615,32.732 C616.640,41.628 616.402,56.890 616.402,68.338 L616.402,131.416 L641.926,131.416 L641.926,68.338 C641.926,51.044 641.412,31.207 626.189,16.198 C616.126,6.275 604.264,0.935 588.783,0.935 Z" class="cls-1"/>
</svg>
